<svg width="40" height="36" viewBox="0 0 40 36" fill="none" xmlns="http://www.w3.org/2000/svg">
<path d="M29.8025 0L21.1039 6.43639L22.7215 2.64324L29.8025 0Z" fill="#E17726"/>
<path d="M10.4903 0.0078125L17.5524 2.64393L19.0883 6.4868L10.4903 0.0078125ZM26.3018 13.6886L30.1465 13.7618L28.8028 18.3264L24.1114 17.0347L26.3018 13.6886ZM13.9704 13.6886L16.1526 17.0347L11.4692 18.3265L10.1337 13.7618L13.9704 13.6886Z" fill="#E27625"/>
<path d="M18.8796 5.50779L19.0367 10.5824L14.3352 10.3686L15.6725 8.35099L15.6895 8.33159L18.8796 5.50779ZM21.3442 5.45117L24.583 8.33174L24.5998 8.35107L25.9372 10.3686L21.2367 10.5824L21.3442 5.45117ZM16.2905 13.7032L18.8576 15.7034L15.8755 17.1432L16.2905 13.7032ZM23.9825 13.7029L24.3889 17.1432L21.4151 15.7033L23.9825 13.7029Z" fill="#E27625"/>
<path d="M21.4809 15.5146L24.4986 16.9758L21.6916 18.3099L21.7207 17.4282L21.4809 15.5146ZM18.7911 15.5153L18.5608 17.4138L18.5797 18.3088L15.7661 16.9758L18.7911 15.5153Z" fill="#D5BFB2"/>
<path d="M17.9194 11.2451L18.7079 12.9024L16.0232 12.1159L17.9194 11.2451ZM22.3528 11.2453L24.2579 12.1159L21.5643 12.9021L22.3528 11.2453Z" fill="#233447"/>
<path d="M16.4954 13.6864L16.0615 17.253L13.7355 13.7644L16.4954 13.6864ZM23.7768 13.6865L26.5369 13.7644L24.2022 17.2532L23.7768 13.6865ZM26.0049 10.167L23.9963 12.2141L22.4476 11.5064L21.7061 13.0651L21.2201 10.3847L26.0049 10.167ZM14.2662 10.167L19.052 10.3847L18.5658 13.0651L17.8242 11.5066L16.2838 12.2142L14.2662 10.167Z" fill="#CC6228"/>
<path d="M14.1306 9.74631L16.4032 12.0524L16.4819 14.329L14.1306 9.74631ZM26.1433 9.74219L23.7878 14.333L23.8765 12.0524L26.1433 9.74219ZM18.9406 9.88679L19.0321 10.4625L19.2581 11.8967L19.1128 16.3016L18.4258 12.763L18.4256 12.7264L18.9406 9.88679ZM21.3298 9.87879L21.8462 12.7264L21.846 12.763L21.1573 16.3104L21.13 15.4231L21.0226 11.8705L21.3298 9.87879Z" fill="#E27525"/>
<path d="M24.0791 11.9609L24.0022 13.9389L21.6049 15.8067L21.1202 15.4643L21.6635 12.6662L24.0791 11.9609ZM16.2021 11.9609L18.6094 12.6662L19.1526 15.4643L18.668 15.8067L16.2706 13.9388L16.2021 11.9609Z" fill="#F5841F"/>
<path d="M15.3071 16.5391L18.3743 17.9923L18.3613 17.3717L18.6179 17.1464H21.6536L21.9195 17.3709L21.8998 17.9911L24.9476 16.5427L23.4645 17.7682L21.6713 18.9999H18.5933L16.8013 17.7632L15.3071 16.5391Z" fill="#C0AC9D"/>
<path d="M21.2608 15.3213L21.6945 15.6277L21.9486 17.6552L21.5808 17.3447H18.6923L18.3315 17.6615L18.5773 15.6278L19.0111 15.3213H21.2608Z" fill="#161616"/>
<path d="M29.2281 0.177734L30.2723 3.31021L29.6202 6.47752L30.0846 6.83569L29.4562 7.3151L29.9285 7.67984L29.3031 8.24929L29.687 8.52732L28.6682 9.71721L24.4894 8.50048L24.4532 8.48108L21.4419 5.94086L29.2281 0.177734ZM11.0442 0.177734L18.8305 5.94086L15.8191 8.48108L15.7829 8.50048L11.6041 9.71721L10.5853 8.52732L10.9689 8.24953L10.3439 7.67984L10.8152 7.3155L10.1775 6.83474L10.6593 6.47633L10 3.31036L11.0442 0.177734Z" fill="#763E1A"/>
<path d="M24.2853 8.23481L28.7129 9.52393L30.1514 13.9574H26.3564L23.7416 13.9903L25.6432 10.2837L24.2853 8.23481ZM15.9875 8.23481L14.6294 10.2837L16.5313 13.9903L13.9176 13.9574H10.1294L11.5598 9.52401L15.9875 8.23481ZM22.9384 2.62207L21.7 5.96693L21.4372 10.4854L21.3366 11.9017L21.3286 15.5197H18.9441L18.9364 11.9085L18.8355 10.4843L18.5726 5.96693L17.3343 2.62207H22.9384Z" fill="#F5841F"/>
</svg>
